<?xml version="1.0" encoding="UTF-8"?>
<svg xmlns="http://www.w3.org/2000/svg" xmlns:xlink="http://www.w3.org/1999/xlink" viewBox="0 0 480 480" width="480px" height="480px">
<g id="surface13393161">
<path style=" stroke:none;fill-rule:nonzero;fill:rgb(100%,100%,100%);fill-opacity:1;" d="M 380 60 L 100 60 C 77.898438 60 60 77.898438 60 100 L 60 380 C 60 402.101562 77.898438 420 100 420 L 252.421875 420 L 252.421875 280.78125 L 205.558594 280.78125 L 205.558594 226.28125 L 252.421875 226.28125 L 252.421875 186.179688 C 252.421875 139.699219 280.839844 114.359375 322.320312 114.359375 C 336.300781 114.320312 350.261719 115.039062 364.160156 116.460938 L 364.160156 165.058594 L 335.601562 165.058594 C 313 165.058594 308.601562 175.738281 308.601562 191.5 L 308.601562 226.199219 L 362.601562 226.199219 L 355.578125 280.699219 L 308.28125 280.699219 L 308.28125 420 L 380 420 C 402.101562 420 420 402.101562 420 380 L 420 100 C 420 77.898438 402.101562 60 380 60 Z M 380 60 "/>
</g>
</svg>
