<?xml version="1.0" encoding="UTF-8"?>
<svg xmlns="http://www.w3.org/2000/svg" xmlns:xlink="http://www.w3.org/1999/xlink" viewBox="0 0 480 480" width="480px" height="480px">
<g id="surface13411020">
<path style=" stroke:none;fill-rule:nonzero;fill:rgb(100%,100%,100%);fill-opacity:1;" d="M 380 60 L 100 60 C 77.898438 60 60 77.898438 60 100 L 60 380 C 60 402.101562 77.898438 420 100 420 L 380 420 C 402.101562 420 420 402.101562 420 380 L 420 100 C 420 77.898438 402.101562 60 380 60 Z M 341 190.28125 C 341 192 341 193.699219 341 197.140625 C 341 262.28125 291.28125 337.71875 200.421875 337.71875 C 173 337.71875 147.28125 329.140625 125 315.441406 C 128.421875 315.441406 133.578125 315.441406 137 315.441406 C 159.28125 315.441406 181.578125 306.859375 198.71875 294.859375 C 176.441406 294.859375 159.300781 279.441406 152.441406 260.578125 C 155.859375 260.578125 159.300781 262.300781 161.019531 262.300781 C 166.160156 262.300781 169.601562 262.300781 174.738281 260.578125 C 152.460938 255.441406 135.320312 236.578125 135.320312 212.578125 C 142.179688 216 149.039062 217.71875 157.601562 219.441406 C 143.878906 207.441406 135.320312 193.71875 135.320312 176.578125 C 135.320312 168 137.039062 159.441406 142.179688 152.578125 C 166.179688 181.71875 202.179688 202.300781 243.320312 204 C 243.320312 200.578125 241.601562 197.140625 241.601562 192 C 241.601562 164.578125 263.878906 142.28125 291.320312 142.28125 C 305.039062 142.28125 318.738281 147.421875 327.320312 157.699219 C 339.320312 155.980469 349.601562 150.839844 358.179688 145.699219 C 354.761719 157.699219 346.179688 166.28125 335.898438 173.121094 C 346.179688 171.398438 354.761719 169.699219 365.039062 164.539062 C 358.140625 174.859375 349.578125 183.421875 341 190.28125 Z M 341 190.28125 "/>
</g>
</svg>
